HIERARCHY
ROOT Hips
{
	OFFSET 0.00000 0.00000 0.00000
	CHANNELS 6 Xposition Yposition Zposition Zrotation Yrotation Xrotation 
	JOINT LHipJoint
	{
		OFFSET 0 0 0
		CHANNELS 3 Zrotation Yrotation Xrotation
		JOINT LeftUpLeg
		{
			OFFSET 1.42489 -1.84941 0.69647
			CHANNELS 3 Zrotation Yrotation Xrotation
			JOINT LeftLeg
			{
				OFFSET 2.44443 -6.71602 0.00000
				CHANNELS 3 Zrotation Yrotation Xrotation
				JOINT LeftFoot
				{
					OFFSET 2.62838 -7.22137 0.00000
					CHANNELS 3 Zrotation Yrotation Xrotation
					JOINT LeftToeBase
					{
						OFFSET 0.24036 -0.66037 2.29953
						CHANNELS 3 Zrotation Yrotation Xrotation
						End Site
						{
							OFFSET 0.00000 -0.00000 1.19837
						}
					}
				}
			}
		}
	}
	JOINT RHipJoint
	{
		OFFSET 0 0 0
		CHANNELS 3 Zrotation Yrotation Xrotation
		JOINT RightUpLeg
		{
			OFFSET -1.37055 -1.84941 0.69647
			CHANNELS 3 Zrotation Yrotation Xrotation
			JOINT RightLeg
			{
				OFFSET -2.54834 -7.00152 0.00000
				CHANNELS 3 Zrotation Yrotation Xrotation
				JOINT RightFoot
				{
					OFFSET -2.65692 -7.29983 0.00000
					CHANNELS 3 Zrotation Yrotation Xrotation
					JOINT RightToeBase
					{
						OFFSET -0.18839 -0.51760 2.29390
						CHANNELS 3 Zrotation Yrotation Xrotation
						End Site
						{
							OFFSET -0.00000 -0.00000 1.18261
						}
					}
				}
			}
		}
	}
	JOINT LowerBack
	{
		OFFSET 0 0 0
		CHANNELS 3 Zrotation Yrotation Xrotation
		JOINT Spine
		{
			OFFSET 0.05220 2.15489 0.05011
			CHANNELS 3 Zrotation Yrotation Xrotation
			JOINT Spine1
			{
				OFFSET -0.07653 2.14219 -0.05668
				CHANNELS 3 Zrotation Yrotation Xrotation
				JOINT Neck
				{
					OFFSET 0 0 0
					CHANNELS 3 Zrotation Yrotation Xrotation
					JOINT Neck1
					{
						OFFSET 0.01370 1.58638 0.01447
						CHANNELS 3 Zrotation Yrotation Xrotation
						JOINT Head
						{
							OFFSET 0.23548 1.54190 -0.21747
							CHANNELS 3 Zrotation Yrotation Xrotation
							End Site
							{
								OFFSET 0.07132 1.59823 -0.08163
							}
						}
					}
				}
				JOINT LeftShoulder
				{
					OFFSET 0 0 0
					CHANNELS 3 Zrotation Yrotation Xrotation
					JOINT LeftArm
					{
						OFFSET 3.47056 1.45357 -0.58896
						CHANNELS 3 Zrotation Yrotation Xrotation
						JOINT LeftForeArm
						{
							OFFSET 5.19069 -0.00000 0.00000
							CHANNELS 3 Zrotation Yrotation Xrotation
							JOINT LeftHand
							{
								OFFSET 3.30016 -0.00000 0.00000
								CHANNELS 3 Zrotation Yrotation Xrotation
								JOINT LeftFingerBase
								{
									OFFSET 0 0 0
									CHANNELS 3 Zrotation Yrotation Xrotation
									JOINT LeftHandIndex1
									{
										OFFSET 0.70770 -0.00000 0.00000
										CHANNELS 3 Zrotation Yrotation Xrotation
										End Site
										{
											OFFSET 0.57056 -0.00000 0.00000
										}
									}
								}
								JOINT LThumb
								{
									OFFSET 0 0 0
									CHANNELS 3 Zrotation Yrotation Xrotation
									End Site
									{
										OFFSET 0.57928 -0.00000 0.57928
									}
								}
							}
						}
					}
				}
				JOINT RightShoulder
				{
					OFFSET 0 0 0
					CHANNELS 3 Zrotation Yrotation Xrotation
					JOINT RightArm
					{
						OFFSET -2.89018 2.03305 -0.26731
						CHANNELS 3 Zrotation Yrotation Xrotation
						JOINT RightForeArm
						{
							OFFSET -5.23924 -0.00000 0.00000
							CHANNELS 3 Zrotation Yrotation Xrotation
							JOINT RightHand
							{
								OFFSET -3.32953 -0.00000 0.00000
								CHANNELS 3 Zrotation Yrotation Xrotation
								JOINT RightFingerBase
								{
									OFFSET 0 0 0
									CHANNELS 3 Zrotation Yrotation Xrotation
									JOINT RightHandIndex1
									{
										OFFSET -0.60741 -0.00000 0.00000
										CHANNELS 3 Zrotation Yrotation Xrotation
										End Site
										{
											OFFSET -0.48971 -0.00000 0.00000
										}
									}
								}
								JOINT RThumb
								{
									OFFSET 0 0 0
									CHANNELS 3 Zrotation Yrotation Xrotation
									End Site
									{
										OFFSET -0.49719 -0.00000 0.49719
									}
								}
							}
						}
					}
				}
			}
		}
	}
}
MOTION
Frames: 14
Frame Time: 0.0166666
25.7767 16.1611 -28.1214 2.9288 -22.7107 -0.8864 0.0000 0.0000 0.0000 -30.3866 2.1451 -30.5147 8.0899 16.1850 52.8859 2.4058 12.1234 -35.6062 0.0174 -0.8526 -2.3433 0.0000 0.0000 0.0000 0.0086 19.2693 -74.7030 -9.8076 -17.3002 58.8433 -1.8656 -6.8364 -29.0100 -1.6000 7.9779 -22.6470 -2.7591 -2.4653 23.5036 -2.4025 -4.0196 15.5305 -0.2839 -2.2605 4.1000 1.9860 -0.2313 1.9036 7.1484 0.7224 -15.6441 1.8620 -0.2575 -5.0320 -0.0000 -0.0000 0.0000 -65.2958 -43.5178 42.8695 68.3321 -58.1495 -41.3517 -0.0000 0.0000 -83.3712 25.6944 4.3110 2.0714 -7.1250 0.0000 -0.0000 -0.7886 34.7609 0.1983 -0.0000 -0.0000 0.0000 69.9185 -7.7832 52.1400 -44.6598 50.6007 -21.9755 0.0000 0.0000 3.0877 -8.1756 -12.5214 1.7840 7.1250 -0.0000 -0.0000 17.0275 -41.9852 1.3083
25.7785 16.1323 -28.0325 3.0334 -22.4071 -1.1849 0.0000 0.0000 0.0000 -30.6271 2.4137 -30.0808 8.1748 16.2463 53.1899 2.4987 11.8312 -35.9009 0.0207 -0.9296 -2.5550 0.0000 0.0000 0.0000 0.0149 19.2457 -72.1357 -7.4008 -15.6603 50.3743 -1.8469 -7.0034 -28.9858 -1.7673 8.3636 -23.8239 -2.6937 -2.5338 23.1889 -2.4337 -4.0806 15.5938 -0.3625 -2.2855 4.3174 1.9458 -0.2838 2.6324 7.1780 0.6950 -15.7004 1.8819 -0.2839 -5.1736 -0.0000 -0.0000 0.0000 -65.4753 -43.8129 42.9970 67.6231 -58.0208 -40.7498 -0.0000 0.0000 -83.4859 25.9618 4.2498 2.0665 -7.1250 0.0000 -0.0000 -0.5648 34.7041 0.1428 -0.0000 -0.0000 0.0000 69.9565 -7.9995 52.1333 -44.7471 50.6440 -22.0430 0.0000 0.0000 3.0289 -8.1236 -12.5581 1.7777 7.1250 -0.0000 -0.0000 17.0831 -42.0156 1.2996
25.7725 16.0956 -27.9305 3.1291 -21.9842 -1.5073 0.0000 0.0000 0.0000 -30.8468 2.6128 -29.5807 8.2935 16.3310 53.6132 2.6027 11.5427 -36.2564 0.0251 -1.0221 -2.8096 0.0000 0.0000 0.0000 -0.0399 19.1310 -69.3621 -5.4071 -13.8281 42.5531 -1.8180 -7.3206 -28.9864 -1.9107 8.6775 -24.7916 -2.5582 -2.6308 22.6918 -2.4764 -4.1586 15.6707 -0.5006 -2.3125 4.6329 1.9701 -0.3587 3.3124 7.2007 0.6299 -15.6142 1.8897 -0.3259 -5.2621 -0.0000 0.0000 0.0000 -65.6726 -44.0245 43.2837 66.9984 -57.9033 -40.2203 -0.0000 0.0000 -83.6133 26.2239 4.2112 2.0716 -7.1250 0.0000 -0.0000 -0.3466 34.6718 0.0879 -0.0000 0.0000 0.0000 70.0643 -8.2722 52.0316 -44.8143 50.6772 -22.0950 0.0000 0.0000 2.9990 -8.0968 -12.5654 1.7727 7.1250 -0.0000 -0.0000 17.1083 -42.0200 1.2997
25.7589 16.0519 -27.8168 3.2066 -21.4866 -1.8728 0.0000 0.0000 0.0000 -31.0333 2.7637 -28.9947 8.4409 16.4341 54.1355 2.7148 11.2810 -36.6695 0.0303 -1.1239 -3.0897 0.0000 0.0000 0.0000 -0.1396 18.9850 -66.5164 -3.8925 -12.0160 35.7886 -1.7802 -7.8719 -29.0800 -1.9841 8.8329 -25.2739 -2.3768 -2.7224 22.0643 -2.5187 -4.2187 15.7563 -0.6758 -2.3260 5.0197 2.0138 -0.4815 3.9747 7.2829 0.5038 -15.4490 1.9162 -0.3998 -5.3218 -0.0000 0.0000 0.0000 -65.9044 -44.1861 43.7562 66.4336 -57.7938 -39.7421 -0.0000 0.0000 -83.7400 26.4939 4.2063 2.0938 -7.1250 0.0000 -0.0000 -0.1229 34.6774 0.0312 -0.0000 0.0000 0.0000 70.2403 -8.6080 51.8341 -44.8330 50.6864 -22.1095 0.0000 0.0000 3.0320 -8.0796 -12.5527 1.7672 7.1250 -0.0000 -0.0000 17.1194 -42.0060 1.3067
25.7387 16.0021 -27.6953 3.2716 -20.9395 -2.3104 0.0000 0.0000 0.0000 -31.1895 2.8970 -28.3048 8.6091 16.5495 54.7283 2.8301 11.0635 -37.1227 0.0373 -1.2463 -3.4268 0.0000 0.0000 0.0000 -0.2648 18.8375 -63.7197 -2.8378 -10.4277 30.3731 -1.7286 -8.6115 -29.2188 -1.9868 8.8386 -25.2917 -2.2224 -2.8086 21.3976 -2.5381 -4.2775 15.8280 -0.8145 -2.3409 5.4159 1.9492 -0.6342 4.7099 7.4710 0.3456 -15.2885 1.9970 -0.4922 -5.3944 0.0000 -0.0000 0.0000 -66.2060 -44.2419 44.3240 65.8911 -57.6856 -39.2833 -0.0000 0.0000 -83.8097 26.7678 4.2042 2.1179 -7.1250 0.0000 -0.0000 0.1038 34.6864 -0.0263 0.0000 -0.0000 0.0000 70.3976 -8.9834 51.6511 -44.7663 50.6535 -22.0579 0.0000 0.0000 3.1136 -8.0403 -12.5347 1.7560 7.1250 -0.0000 -0.0000 17.1480 -41.9850 1.3183
25.7129 15.9484 -27.5684 3.3412 -20.3963 -2.8371 0.0000 0.0000 0.0000 -31.3306 3.0773 -27.5093 8.7872 16.6688 55.3514 2.9535 10.8622 -37.6216 0.0453 -1.3742 -3.7792 0.0000 0.0000 0.0000 -0.3876 18.7192 -61.0556 -2.1566 -9.1850 26.3758 -1.6685 -9.3473 -29.3225 -1.9458 8.7522 -25.0233 -2.1212 -2.8773 20.7459 -2.5496 -4.3251 15.8855 -0.9168 -2.3543 5.7963 1.7974 -0.8007 5.5071 7.7351 0.1732 -15.1488 2.1191 -0.5944 -5.4831 -0.0000 0.0000 0.0000 -66.5622 -44.1736 44.9279 65.3549 -57.5758 -38.8304 -0.0000 0.0000 -83.7872 27.0367 4.2043 2.1427 -7.1250 0.0000 -0.0000 0.3264 34.6975 -0.0826 -0.0000 0.0000 0.0000 70.5391 -9.3528 51.5191 -44.5901 50.5661 -21.9217 0.0000 0.0000 3.2116 -7.9779 -12.5611 1.7458 7.1250 -0.0000 -0.0000 17.2096 -42.0043 1.3148
25.6828 15.8933 -27.4360 3.4440 -19.9870 -3.4268 0.0000 0.0000 0.0000 -31.4892 3.4233 -26.6768 8.9609 16.7825 55.9550 3.0846 10.6739 -38.1595 0.0547 -1.5099 -4.1529 0.0000 0.0000 0.0000 -0.4540 18.6757 -58.5727 -1.7304 -8.2803 23.5687 -1.6167 -9.8351 -29.3254 -1.8961 8.6463 -24.6949 -2.1234 -2.9060 20.1035 -2.5672 -4.3393 15.9123 -0.9721 -2.3593 6.1470 1.5229 -0.9322 6.3555 8.0544 0.0412 -14.9879 2.2781 -0.6747 -5.5740 0.0000 -0.0000 0.0000 -66.9503 -43.9370 45.4631 64.8172 -57.4626 -38.3769 -0.0000 0.0000 -83.7035 27.2976 4.2100 2.1697 -7.1250 0.0000 -0.0000 0.5424 34.7146 -0.1370 0.0000 -0.0000 0.0000 70.6224 -9.6689 51.5098 -44.2952 50.4185 -21.6942 0.0000 0.0000 3.3022 -7.9073 -12.6136 1.7373 7.1250 -0.0000 -0.0000 17.2859 -42.0480 1.3018
25.6497 15.8407 -27.2962 3.5775 -19.6987 -4.0124 0.0000 0.0000 0.0000 -31.6640 3.9283 -25.8481 9.1185 16.8833 56.4989 3.2235 10.4556 -38.7107 0.0654 -1.6504 -4.5404 0.0000 0.0000 0.0000 -0.4430 18.6534 -56.2517 -1.4502 -7.6122 21.5421 -1.5817 -10.1095 -29.2923 -1.8715 8.5931 -24.5305 -2.1652 -2.9017 19.4323 -2.6059 -4.3159 15.9052 -1.0337 -2.3473 6.4772 1.1643 -1.0400 7.1804 8.4317 -0.0726 -14.7381 2.4680 -0.7431 -5.6327 -0.0000 0.0000 0.0000 -67.3439 -43.5808 45.9648 64.2676 -57.3439 -37.9138 -0.0000 0.0000 -83.6507 27.5501 4.2610 2.2197 -7.1250 0.0000 -0.0000 0.7504 34.7825 -0.1883 -0.0000 0.0000 0.0000 70.7113 -9.9297 51.5482 -43.8996 50.2178 -21.3897 0.0000 0.0000 3.4223 -7.8523 -12.6710 1.7328 7.1250 -0.0000 -0.0000 17.3505 -42.0977 1.2849
25.6143 15.7941 -27.1479 3.7108 -19.4632 -4.5080 0.0000 0.0000 0.0000 -31.8226 4.5108 -25.0663 9.2556 16.9694 56.9700 3.3653 10.1709 -39.2310 0.0780 -1.8011 -4.9562 0.0000 0.0000 0.0000 -0.3396 18.5650 -54.0772 -1.2426 -7.0681 19.9172 -1.5622 -10.3303 -29.3258 -1.8574 8.5625 -24.4362 -2.1655 -2.8878 18.6949 -2.6602 -4.2715 15.8574 -1.1386 -2.3189 6.7922 0.7497 -1.1543 7.9288 8.8681 -0.2121 -14.3782 2.6863 -0.8213 -5.6413 -0.0000 0.0000 0.0000 -67.7415 -43.1578 46.4772 63.7100 -57.2201 -37.4447 -0.0000 0.0000 -83.7063 27.8003 4.2772 2.2519 -7.1250 0.0000 -0.0000 0.9576 34.8112 -0.2396 -0.0000 0.0000 0.0000 70.8528 -10.1508 51.5449 -43.4410 49.9814 -21.0379 0.0000 0.0000 3.6113 -7.8303 -12.7043 1.7323 7.1250 -0.0000 -0.0000 17.3794 -42.1277 1.2739
25.5771 15.7544 -26.9919 3.8009 -19.1472 -4.8425 0.0000 0.0000 0.0000 -31.9199 5.0183 -24.3520 9.3816 17.0471 57.4005 3.5116 9.7560 -39.6964 0.0918 -1.9541 -5.3789 0.0000 0.0000 0.0000 -0.1784 18.3146 -52.0515 -1.0716 -6.5805 18.4784 -1.5492 -10.6542 -29.4820 -1.8449 8.5352 -24.3518 -2.0145 -2.9108 17.8377 -2.7369 -4.2513 15.8010 -1.3546 -2.2859 7.1488 0.3507 -1.3001 8.5231 9.3295 -0.4082 -13.9408 2.9118 -0.9255 -5.5952 0.0000 0.0000 0.0000 -68.0960 -42.7733 47.0040 63.1409 -57.0904 -36.9666 -0.0000 0.0000 -83.8364 28.0032 4.3666 2.3186 -7.1250 0.0000 -0.0000 1.1242 34.9209 -0.2783 0.0000 0.0000 0.0000 71.1290 -10.3163 51.3947 -42.9725 49.7356 -20.6797 0.0000 0.0000 3.8881 -7.8299 -12.7097 1.7329 7.1250 -0.0000 -0.0000 17.3814 -42.1328 1.2718
25.5380 15.7185 -26.8341 3.8263 -18.7861 -4.9845 0.0000 0.0000 0.0000 -31.9195 5.4389 -23.7967 9.5148 17.1278 57.8541 3.6551 9.2180 -40.0842 0.1100 -2.1384 -5.8882 0.0000 0.0000 0.0000 -0.0011 17.9883 -50.2162 -0.9269 -6.1335 17.1722 -1.5373 -11.0557 -29.7094 -1.8246 8.4907 -24.2147 -1.7676 -2.9506 16.9365 -2.7897 -4.2435 15.7020 -1.5964 -2.2497 7.4780 -0.0219 -1.4707 8.9685 9.7284 -0.6578 -13.4679 3.1146 -1.0493 -5.5081 0.0000 -0.0000 0.0000 -68.4571 -42.4063 47.5256 62.6152 -56.9675 -36.5255 -0.0000 0.0000 -83.9710 28.1594 4.5365 2.4243 -7.1250 0.0000 -0.0000 1.2510 35.1200 -0.3036 0.0000 -0.0000 0.0000 71.4430 -10.4762 51.1368 -42.5846 49.5288 -20.3842 0.0000 0.0000 4.1771 -7.8758 -12.6408 1.7339 7.1250 -0.0000 -0.0000 17.3213 -42.0710 1.2944
25.4971 15.6831 -26.6786 3.7862 -18.4406 -4.9777 0.0000 0.0000 0.0000 -31.8094 5.8135 -23.4141 9.6705 17.2203 58.3813 3.7880 8.5939 -40.3840 0.1369 -2.3850 -6.5709 0.0000 0.0000 0.0000 0.1385 17.7322 -48.5355 -0.8065 -5.7313 16.0068 -1.5226 -11.4955 -29.9545 -1.7995 8.4354 -24.0445 -1.4800 -3.0010 16.0569 -2.8063 -4.2520 15.5593 -1.8168 -2.2191 7.7497 -0.4459 -1.6191 9.3566 10.0699 -0.8966 -13.0298 3.3070 -1.1620 -5.4203 0.0000 -0.0000 0.0000 -68.7948 -42.0152 47.9674 62.2143 -56.8717 -36.1896 -0.0000 0.0000 -84.0774 28.3049 4.7295 2.5425 -7.1250 0.0000 -0.0000 1.3688 35.3453 -0.3247 0.0000 -0.0000 0.0000 71.6955 -10.6541 50.8906 -42.3624 49.4089 -20.2153 0.0000 0.0000 4.3624 -8.0052 -12.4497 1.7366 7.1250 -0.0000 -0.0000 17.1532 -41.8999 1.3560
25.4546 15.6461 -26.5293 3.7039 -18.1769 -4.8874 0.0000 0.0000 0.0000 -31.6045 6.2096 -23.1964 9.8565 17.3283 59.0076 3.8964 7.9523 -40.5712 0.1820 -2.7476 -7.5770 0.0000 0.0000 0.0000 0.2822 17.5902 -46.9916 -0.7102 -5.3859 15.0125 -1.5027 -11.8955 -30.1422 -1.7907 8.4159 -23.9845 -1.1881 -3.0435 15.2636 -2.8052 -4.2583 15.3872 -2.0142 -2.1882 7.9474 -0.9390 -1.7301 9.7278 10.3994 -1.0971 -12.6501 3.5054 -1.2543 -5.3477 -0.0000 0.0000 0.0000 -69.0581 -41.5827 48.3022 62.0000 -56.8197 -36.0101 -0.0000 0.0000 -84.1495 28.4852 4.8882 2.6473 -7.1250 0.0000 -0.0000 1.5166 35.5339 -0.3528 -0.0000 0.0000 0.0000 71.8666 -10.8523 50.7290 -42.3371 49.3952 -20.1961 0.0000 0.0000 4.3856 -8.1807 -12.2257 1.7437 7.1250 -0.0000 -0.0000 16.9368 -41.7009 1.4238
25.4103 15.6080 -26.3858 3.6004 -17.9968 -4.7765 0.0000 0.0000 0.0000 -31.3226 6.6404 -23.0728 10.0722 17.4502 59.7293 3.9771 7.3271 -40.6491 0.2530 -3.2363 -8.9372 0.0000 0.0000 0.0000 0.5414 17.4609 -45.5581 -0.6356 -5.1009 14.1966 -1.4896 -12.1573 -30.2676 -1.7951 8.4256 -24.0145 -0.8870 -3.0535 14.5962 -2.8150 -4.2286 15.2329 -2.2249 -2.1386 8.1022 -1.3985 -1.8384 10.0066 10.7369 -1.2908 -12.3143 3.6998 -1.3460 -5.2721 0.0000 -0.0000 0.0000 -69.2098 -41.1806 48.5988 61.9921 -56.8178 -36.0036 -0.0000 0.0000 -84.2201 28.7135 4.8999 2.6789 -7.1250 0.0000 -0.0000 1.7073 35.5584 -0.3962 0.0000 -0.0000 0.0000 72.0337 -11.0214 50.5951 -42.4764 49.4705 -20.3019 0.0000 0.0000 4.2813 -8.2795 -12.1875 1.7596 7.1250 -0.0000 -0.0000 16.8409 -41.6735 1.4269
